<?xml version="1.0" encoding="UTF-8"?>
<svg id="Logo_Light" xmlns="http://www.w3.org/2000/svg" viewBox="0 0 548.74 548.74">
  <rect width="548.74" height="548.74" rx="59.88" ry="59.88" fill="#2f3541"/>
  <g id="Logo_Light-2" data-name="Logo_Light">
    <path d="M457.33,110.8c-1.07-.94-2.28-1.21-2.28-1.21l-78.09-.81s-1.57.26-2.03.45c-.38.16-1.31.97-1.31.97l-99.25,105.83-97.14-103.1s-2.66-2.16-3.56-3.01c-.77-.72-4.06-1.13-4.06-1.13l-75.79.81s-3.89.4-3.89,3.35v38.24l1.34,4.43,182.49,187.19s1.07.94,2.28,1.07c1.21.13,3.62-2.01,3.62-2.01l87.22-90.31s.81-1.21,1.48-1.21,1.34,1.74,1.34,1.74v183.7s.67,1.88,1.48,2.55c.81.67,1.88,1.21,1.88,1.21l81.85.4s1.61,0,2.55-1.07c.94-1.07,1.34-2.82,1.34-2.82V113.62s-.4-1.88-1.48-2.82Z" fill="#fff"/>
    <path d="M91.3,263.79s109.33,111.08,110.99,112.69c2.18,2.12,4.87,2.9,6.07,2.86,2.18-.07,2.93-1.26,3.07-2.24.14-.94-.02-46.93-.02-46.93,0,0,.18-1.43-.43-2.63-.93-1.86-115.64-117.12-115.64-117.12,0,0-1.3-1.74-4.18-1.07-3.06.71-3.05,3.46-3.05,3.46v44.81s.04,1.35.79,2.86c.75,1.5,2.41,3.31,2.41,3.31Z" fill="#fff"/>
    <path d="M211.27,423.03c-.7-1.96-115.64-117.12-115.64-117.12,0,0-1.3-1.74-4.18-1.07-3.06.71-3.05,3.46-3.05,3.46v44.81s.04,1.35.79,2.86c.75,1.5,2.41,3.31,2.41,3.31,0,0,38.24,38.85,69.83,70.93.55.56,1.12,1.17,1.84,1.47.5.21,1.95.19,1.95.19h45.14s.7-.02,1.06-.33c.31-.26.29-.78.29-1.28,0-2.84-.02-4.61-.02-4.61,0,0,.03-1.35-.43-2.63Z" fill="#fff"/>
  </g>
</svg>