<svg xmlns="http://www.w3.org/2000/svg" width="24" height="24" fill="none" stroke="currentColor" stroke-width="1.75" stroke-linecap="round" stroke-linejoin="round" viewBox="0 0 24 24">
  <circle cx="12" cy="12" r="3.25" />
  <path d="M19.4 15a1.8 1.8 0 0 0 .36 1.97l.02.02a2 2 0 1 1-2.83 2.83l-.02-.02A1.8 1.8 0 0 0 15 19.4a1.8 1.8 0 0 0-1 .3 1.8 1.8 0 0 0-.9.78 1.8 1.8 0 0 1-3.2 0 1.8 1.8 0 0 0-.9-.78 1.8 1.8 0 0 0-1-.3 1.8 1.8 0 0 0-1.97.36l-.02.02a2 2 0 1 1-2.83-2.83l.02-.02A1.8 1.8 0 0 0 4.6 15c0-.36-.1-.7-.3-1a1.8 1.8 0 0 0-.78-.9 1.8 1.8 0 0 1 0-3.2c.33-.18.64-.43.9-.78.2-.3.3-.64.3-1a1.8 1.8 0 0 0-.36-1.97l-.02-.02A2 2 0 1 1 6.18 2.3l.02.02c.52.52 1.24.72 1.97.36.32-.16.66-.26 1-.3a1.8 1.8 0 0 0 .9-.78 1.8 1.8 0 0 1 3.2 0 1.8 1.8 0 0 0 .9.78c.3.2.64.3 1 .3.73.04 1.45-.14 1.97-.66l.02-.02A2 2 0 1 1 21.7 6.2l-.02.02a1.8 1.8 0 0 0-.78.9c-.2.3-.3.64-.3 1 0 .36.1.7.3 1 .2.3.48.55.78.9a1.8 1.8 0 0 1 0 3.2 1.8 1.8 0 0 0-.9.78c-.2.3-.3.64-.3 1Z" />
</svg>
